HIERARCHY
ROOT Hips
{
	OFFSET 0.000000 0.000000 0.000000
	CHANNELS 6 Xposition Yposition Zposition Xrotation Yrotation Zrotation
	JOINT LeftUpLeg_virtual
	{
		OFFSET 0.000000 0.000000 0.000000
		CHANNELS 3 Xrotation Yrotation Zrotation
		JOINT LeftUpLeg
		{
			OFFSET 10.205400 -3.823500 0.155100
			CHANNELS 3 Xrotation Yrotation Zrotation
			JOINT LeftLeg
			{
				OFFSET 0.708757 -12.982077 0.567790
				CHANNELS 3 Xrotation Yrotation Zrotation
				JOINT LeftFoot
				{
					OFFSET -0.708756 -10.717838 -2.184338
					CHANNELS 3 Xrotation Yrotation Zrotation
					JOINT LeftToeBase
					{
						OFFSET 0.108149 -7.191104 7.560241
						CHANNELS 3 Xrotation Yrotation Zrotation
						JOINT LeftToe_End
						{
							OFFSET 0.070230 0.081724 4.490308
							CHANNELS 3 Xrotation Yrotation Zrotation
							End Site
							{
								OFFSET 0 0 0
							}
						}
					}
				}
			}
		}
	}
	JOINT RightUpLeg_virtual
	{
		OFFSET 0.000000 0.000000 0.000000
		CHANNELS 3 Xrotation Yrotation Zrotation
		JOINT RightUpLeg
		{
			OFFSET -10.205400 -3.823500 0.005500
			CHANNELS 3 Xrotation Yrotation Zrotation
			JOINT RightLeg
			{
				OFFSET -0.708756 -12.982134 0.610632
				CHANNELS 3 Xrotation Yrotation Zrotation
				JOINT RightFoot
				{
					OFFSET 0.708754 -10.717769 -1.945823
					CHANNELS 3 Xrotation Yrotation Zrotation
					JOINT RightToeBase
					{
						OFFSET -0.108140 -7.191069 7.372968
						CHANNELS 3 Xrotation Yrotation Zrotation
						JOINT RightToe_End
						{
							OFFSET -0.070227 0.081735 4.479403
							CHANNELS 3 Xrotation Yrotation Zrotation
							End Site
							{
								OFFSET 0 0 0
							}
						}
					}
				}
			}
		}
	}
	JOINT Spine_virtual
	{
		OFFSET 0.000000 0.000000 0.000000
		CHANNELS 3 Xrotation Yrotation Zrotation
		JOINT Spine
		{
			OFFSET 0.000000 6.876099 0.125700
			CHANNELS 3 Xrotation Yrotation Zrotation
			JOINT Spine1
			{
				OFFSET 0.000000 5.730043 0.104720
				CHANNELS 3 Xrotation Yrotation Zrotation
				JOINT Spine1_split
				{
					OFFSET 0.000000 5.730043 0.104720
					CHANNELS 3 Xrotation Yrotation Zrotation
					JOINT Spine2
					{
						OFFSET 0.000000 5.730043 0.104720
						CHANNELS 3 Xrotation Yrotation Zrotation
						JOINT Neck_virtual
						{
							OFFSET 0.000000 0.000000 0.000000
							CHANNELS 3 Xrotation Yrotation Zrotation
							JOINT Neck
							{
								OFFSET 0.000000 10.314075 0.188496
								CHANNELS 3 Xrotation Yrotation Zrotation
								JOINT Head
								{
									OFFSET 0.000000 7.643700 -2.377400
									CHANNELS 3 Xrotation Yrotation Zrotation
									JOINT HeadTop_End
									{
										OFFSET 0.000000 43.788605 -13.619600
										CHANNELS 3 Xrotation Yrotation Zrotation
										End Site
										{
											OFFSET 0 0 0
										}
									}
								}
							}
						}
						JOINT LeftShoulder_virtual
						{
							OFFSET 0.000000 0.000000 0.000000
							CHANNELS 3 Xrotation Yrotation Zrotation
							JOINT LeftShoulder
							{
								OFFSET 2.196100 4.412489 0.087492
								CHANNELS 3 Xrotation Yrotation Zrotation
								JOINT LeftShoulder_split
								{
									OFFSET 2.196100 4.412489 0.087492
									CHANNELS 3 Xrotation Yrotation Zrotation
									JOINT LeftArm
									{
										OFFSET 8.771219 -2.981674 -0.026999
										CHANNELS 3 Xrotation Yrotation Zrotation
										JOINT LeftForeArm
										{
											OFFSET 8.512804 0.000000 -0.000000
											CHANNELS 3 Xrotation Yrotation Zrotation
											JOINT LeftHand
											{
												OFFSET 18.484802 0.000000 -0.000000
												CHANNELS 3 Xrotation Yrotation Zrotation
												End Site
												{
													OFFSET 0 0 0
												}
											}
										}
									}
								}
							}
						}
						JOINT RightShoulder_virtual
						{
							OFFSET 0.000000 0.000000 0.000000
							CHANNELS 3 Xrotation Yrotation Zrotation
							JOINT RightShoulder
							{
								OFFSET -2.196100 4.412496 0.070690
								CHANNELS 3 Xrotation Yrotation Zrotation
								JOINT RightShoulder_split
								{
									OFFSET -2.196100 4.412496 0.070690
									CHANNELS 3 Xrotation Yrotation Zrotation
									JOINT RightArm
									{
										OFFSET -8.771282 -2.981682 -0.094208
										CHANNELS 3 Xrotation Yrotation Zrotation
										JOINT RightForeArm
										{
											OFFSET -8.494598 0.000000 0.000000
											CHANNELS 3 Xrotation Yrotation Zrotation
											JOINT RightHand
											{
												OFFSET -18.483803 0.000000 0.000001
												CHANNELS 3 Xrotation Yrotation Zrotation
												End Site
												{
													OFFSET 0 0 0
												}
											}
										}
									}
								}
							}
						}
					}
				}
			}
		}
	}
}
MOTION
Frames: 10
Frame Time: 0.03333333
-5.058512 24.824844 -50.745598 0.000000 0.000000 0.000000 163.462123 -75.033576 157.168008 -57.006401 -12.892419 45.749447 40.469441 -15.919791 -5.137623 17.506676 4.018932 -21.116396 -1.402099 1.903798 2.151336 0.000000 0.000000 0.000000 160.089771 -74.431392 154.177505 -39.435566 1.147613 -37.598433 48.890316 8.810522 3.956193 -6.741418 -3.616528 21.985143 -8.817017 -0.181381 1.257399 0.000000 0.000000 0.000000 160.667305 -75.800169 154.186794 5.181058 8.877146 1.058780 -0.214114 12.602979 2.694307 -0.169951 2.616696 0.930487 0.000000 0.000000 0.000000 8.861769 14.627451 0.431229 4.503204 9.613633 -6.122472 -9.915527 16.928431 7.565287 0.000000 0.000000 0.000000 6.249909 15.362509 0.186464 6.577860 9.329909 -11.669802 12.666062 1.168704 -1.426589 -52.174934 -34.985564 -47.252704 37.088323 -87.410329 33.260474 0.000000 0.000000 0.000000 7.447251 15.328348 1.403785 -13.703939 3.354868 -3.666711 12.404409 -0.522974 -5.283874 -92.944060 37.533075 110.170794 -7.845509 40.685521 4.805598 0.000000 0.000000 0.000000 
-4.251024 25.216105 -52.195137 0.000000 0.000000 0.000000 162.495719 -76.486658 156.189365 -59.440042 -11.113132 43.567485 41.607446 -15.613240 -4.385143 17.119258 3.304214 -21.501055 -2.402374 1.668232 2.370394 0.000000 0.000000 0.000000 161.924907 -75.282195 156.132933 -38.759387 -3.142509 -31.701678 55.357010 6.766869 4.652633 -11.682463 -6.828343 19.727485 -8.781847 0.167819 0.724132 0.000000 0.000000 0.000000 163.409257 -74.831109 156.388437 5.921584 8.321222 1.142612 -0.389447 11.745108 2.948979 0.069258 2.507100 0.825483 0.000000 0.000000 0.000000 8.945713 13.931115 0.602238 3.483467 10.509864 -7.042427 -10.878545 18.328230 8.188204 0.000000 0.000000 0.000000 6.447534 14.499108 0.531322 6.020103 8.911476 -11.511452 13.668705 4.728227 -1.928078 -52.529926 -34.724706 -48.206061 49.403373 -87.895314 45.357145 0.000000 0.000000 0.000000 7.427519 14.468513 1.555975 -13.651249 2.534664 -4.488140 12.711738 -0.326127 -6.525848 -93.261076 38.763895 110.468461 -7.668412 40.387069 4.644849 0.000000 0.000000 0.000000 
-3.630208 25.542707 -53.046913 0.000000 0.000000 0.000000 160.336328 -78.110344 153.962846 -62.783311 -10.011547 40.878969 45.320631 -14.525504 -3.545907 16.091530 3.349771 -20.363579 -3.586140 1.611442 1.811137 0.000000 0.000000 0.000000 163.351965 -75.893982 157.659658 -37.015985 -6.777823 -26.729064 58.986859 5.483248 4.623763 -16.429151 -9.382451 18.287591 -8.549673 0.615371 0.380281 0.000000 0.000000 0.000000 165.846159 -74.033001 158.612415 6.410462 8.106976 1.249499 -0.557637 11.064511 3.114465 0.175881 2.232674 0.929907 0.000000 0.000000 0.000000 9.216463 13.403248 0.634470 2.673583 11.009063 -7.912450 -11.501102 19.506913 8.380177 0.000000 0.000000 0.000000 6.739410 13.824136 0.710209 5.521840 8.738349 -11.575066 14.169170 7.437560 -1.621553 -52.973028 -34.711899 -49.084400 38.916789 -87.540909 34.549904 0.000000 0.000000 0.000000 7.534168 13.801166 1.568731 -13.596269 1.711948 -5.090449 12.608213 -0.465058 -7.444886 -93.572806 40.270870 110.641886 -7.307130 40.213941 4.307799 0.000000 0.000000 0.000000 
-3.338478 25.772339 -53.511032 0.000000 0.000000 0.000000 157.360879 -79.321446 150.985129 -65.922998 -9.114335 38.905587 49.323815 -13.033066 -3.055047 15.152551 4.087433 -18.128031 -3.474296 1.797439 0.558534 0.000000 0.000000 0.000000 163.382660 -76.355764 157.784323 -35.115252 -9.011432 -23.629533 59.088725 5.273797 3.919397 -19.926594 -10.906432 17.553023 -7.348344 0.990746 0.529847 0.000000 0.000000 0.000000 167.562258 -73.705760 160.470855 6.688450 8.143505 1.185633 -0.658584 10.595343 3.137299 0.115884 1.661598 1.003150 0.000000 0.000000 0.000000 9.487416 13.060552 0.547604 2.033206 11.111200 -8.517996 -11.605577 20.284608 8.309367 0.000000 0.000000 0.000000 7.017638 13.348119 0.709444 5.118800 8.975046 -11.522275 13.897523 9.289287 -0.889850 -53.268294 -34.732823 -49.674583 22.343956 -86.251274 17.599062 0.000000 0.000000 0.000000 7.646869 13.327901 1.460872 -13.550962 0.829848 -5.387457 12.331256 -0.371932 -8.394871 -94.068896 41.911817 110.930619 -6.773885 39.635933 3.855413 0.000000 0.000000 0.000000 
-3.296883 25.908150 -53.704063 0.000000 0.000000 0.000000 155.865477 -79.654855 149.675195 -67.833819 -8.101133 38.303178 51.450890 -12.104005 -2.884747 14.648802 4.732001 -16.418882 -2.530992 2.081357 -0.536139 0.000000 0.000000 0.000000 163.564220 -76.391800 158.197618 -33.991867 -9.592790 -22.817027 57.686070 5.961797 3.033509 -21.967376 -11.222790 16.823292 -4.344482 1.153869 1.173285 0.000000 0.000000 0.000000 168.736764 -73.624610 162.055582 6.906292 8.282384 0.858324 -0.675010 10.341252 3.075560 -0.066193 1.214521 0.903561 0.000000 0.000000 0.000000 9.607318 12.868389 0.405678 1.666055 10.903324 -8.809235 -11.226066 20.550187 8.125949 0.000000 0.000000 0.000000 7.198550 13.060724 0.619414 4.826800 9.521241 -11.126195 12.842977 10.170096 -0.559038 -53.191085 -34.772131 -49.832900 13.793815 -84.534137 8.684276 0.000000 0.000000 0.000000 7.646942 13.027385 1.332732 -13.543433 -0.174643 -5.388756 11.987471 -0.069666 -9.191363 -94.658349 43.546045 111.577096 -6.151765 38.506684 3.418251 0.000000 0.000000 0.000000 
-3.471162 25.954700 -53.696976 0.000000 0.000000 0.000000 156.422848 -79.275438 150.664356 -67.969002 -6.780468 38.751795 51.168318 -11.754699 -2.780390 14.557968 5.068834 -15.521287 -1.756661 2.298170 -1.008567 0.000000 0.000000 0.000000 163.112458 -76.141501 158.010880 -33.864932 -8.840188 -23.783458 56.597748 7.251040 2.399367 -22.423041 -10.738954 16.136247 -0.824656 1.114572 1.987394 0.000000 0.000000 0.000000 169.056498 -73.634220 162.843007 7.124843 8.331326 0.253008 -0.655965 10.241200 2.988608 -0.192177 1.066393 0.812163 0.000000 0.000000 0.000000 9.556656 12.772236 0.290032 1.590158 10.377500 -8.752620 -10.450278 20.085838 7.955665 0.000000 0.000000 0.000000 7.175531 12.918349 0.566562 4.654681 10.183424 -10.364307 11.327821 9.642856 -0.514703 -52.667234 -34.761794 -49.565498 10.568361 -83.337378 5.135449 0.000000 0.000000 0.000000 7.527778 12.850819 1.286450 -13.571615 -1.366527 -5.193102 11.657350 0.352287 -9.890620 -94.987905 44.796981 112.444755 -5.569523 37.271113 3.129268 0.000000 0.000000 0.000000 
-3.711410 25.956781 -53.536270 0.000000 0.000000 0.000000 158.831036 -78.525797 153.770972 -66.964698 -5.257086 39.628013 49.551045 -11.955781 -2.486813 14.988628 4.947514 -15.332062 -1.464948 2.379083 -0.726598 0.000000 0.000000 0.000000 162.731443 -75.877692 158.021891 -34.496577 -7.255218 -25.603610 56.844857 8.723162 2.145997 -21.411948 -9.808435 16.147860 1.349694 0.787559 2.523283 0.000000 0.000000 0.000000 168.632398 -73.676308 162.881092 7.305101 8.183471 -0.535595 -0.692311 10.208893 2.947633 0.054754 1.074614 0.713123 0.000000 0.000000 0.000000 9.247200 12.726167 0.301919 1.720042 9.668180 -8.419233 -9.604840 19.007056 7.959784 0.000000 0.000000 0.000000 6.906158 12.857198 0.580452 4.612392 10.811027 -9.424869 9.872250 8.238680 -0.724804 -51.751848 -34.783582 -49.047687 10.573977 -83.067408 4.798640 0.000000 0.000000 0.000000 7.272007 12.762742 1.356526 -13.658726 -2.753415 -4.961851 11.497104 0.999179 -10.619809 -94.857817 45.218188 113.224217 -5.186510 36.229775 3.062266 0.000000 0.000000 0.000000 
-3.847006 25.935806 -53.320244 0.000000 0.000000 0.000000 162.603718 -77.645809 158.289716 -65.549284 -4.043211 40.165081 48.191810 -12.683154 -2.025082 15.891876 4.240402 -15.731908 -2.018216 2.289044 0.257791 0.000000 0.000000 0.000000 163.821404 -75.692156 159.781702 -35.154786 -5.684507 -27.174992 58.239452 10.045145 2.120670 -19.767684 -8.590023 16.805131 1.289467 0.310284 2.676596 0.000000 0.000000 0.000000 167.993420 -73.786438 162.511210 7.445951 7.889906 -1.283796 -0.818993 10.212956 2.980939 0.324515 1.448796 0.652779 0.000000 0.000000 0.000000 8.812310 12.712229 0.449205 2.153184 8.780894 -7.912069 -8.900444 17.513136 8.099497 0.000000 0.000000 0.000000 6.431204 12.860315 0.673717 4.716595 11.209415 -8.638217 8.733713 6.221693 -0.896595 -50.492426 -34.994809 -48.249044 12.933654 -83.334762 6.735440 0.000000 0.000000 0.000000 6.930738 12.774510 1.564666 -13.781831 -4.133461 -4.841323 11.436130 1.615701 -11.189641 -94.359405 44.629235 113.838947 -5.067199 35.705367 3.183295 0.000000 0.000000 0.000000 
-3.805399 25.981100 -53.078842 0.000000 0.000000 0.000000 166.260246 -76.962080 162.679424 -64.440328 -3.579809 39.769859 48.136523 -13.123883 -1.632727 16.739875 3.633031 -15.669270 -2.872165 2.096483 1.284171 0.000000 0.000000 0.000000 166.135144 -75.647528 162.967125 -35.334375 -4.765724 -27.952438 59.440759 10.810111 2.201874 -18.684061 -7.515698 17.009929 0.144375 -0.067025 2.620139 0.000000 0.000000 0.000000 167.421324 -73.898651 161.913910 7.548523 7.498852 -1.790450 -1.022702 10.237744 3.052529 0.429490 1.906429 0.562115 0.000000 0.000000 0.000000 8.417749 12.727234 0.652553 2.869814 7.800698 -7.348140 -8.404571 15.793431 8.269225 0.000000 0.000000 0.000000 5.870607 12.916274 0.768698 4.922795 11.303734 -8.215305 8.314706 4.657210 -0.563739 -49.212664 -35.501718 -47.207822 17.190457 -83.583600 10.446176 0.000000 0.000000 0.000000 6.603124 12.874434 1.809063 -13.897757 -5.306727 -4.907890 11.156219 2.027375 -11.533963 -93.913066 43.218504 114.427122 -5.176917 35.623460 3.406976 0.000000 0.000000 0.000000 
-3.597773 26.146706 -52.843315 0.000000 0.000000 0.000000 169.801126 -76.690443 166.924974 -63.850698 -3.955547 38.495878 49.354776 -12.931613 -1.386921 16.999516 3.492229 -14.924896 -3.404259 1.908828 1.923548 0.000000 0.000000 0.000000 169.583953 -75.558025 167.295512 -35.126563 -4.534641 -27.874685 59.420487 10.733953 2.382877 -19.397478 -6.735005 15.750946 0.216678 -0.204622 2.626740 0.000000 0.000000 0.000000 166.707815 -73.918575 160.874410 7.551818 7.113156 -1.895288 -1.270190 10.343310 3.113388 0.280628 2.405854 0.502822 0.000000 0.000000 0.000000 8.149936 12.766774 0.813355 3.840909 6.897575 -6.907021 -8.047299 14.061821 8.287337 0.000000 0.000000 0.000000 5.385499 13.041035 0.771583 5.166594 11.050893 -8.372575 8.418551 3.984993 0.259244 -48.066538 -36.489862 -46.012082 21.709720 -83.341272 14.353072 0.000000 0.000000 0.000000 6.379380 13.055212 1.952392 -14.027265 -6.199412 -5.211694 10.811426 2.005697 -11.347411 -93.900648 41.721770 115.334725 -5.390730 35.750535 3.624728 0.000000 0.000000 0.000000 
